<?xml version="1.0" encoding="UTF-8" standalone="no"?>
<!DOCTYPE svg PUBLIC "-//W3C//DTD SVG 1.1//EN" "http://www.w3.org/Graphics/SVG/1.1/DTD/svg11.dtd">
<svg width="100%" height="100%" viewBox="0 0 320 100" version="1.1" xmlns="http://www.w3.org/2000/svg" xmlns:xlink="http://www.w3.org/1999/xlink" xml:space="preserve" xmlns:serif="http://www.serif.com/" style="fill-rule:evenodd;clip-rule:evenodd;stroke-linejoin:round;stroke-miterlimit:2;">
    <g transform="matrix(1,0,0,1,-13.7848,-35.3924)">
        <rect x="50.996" y="64.33" width="48.017" height="8.775" style="fill:rgb(209,42,124);"/>
        <g transform="matrix(1.23535,0,0,3.14831,-17.6522,-111.952)">
            <rect x="50.996" y="64.33" width="48.017" height="8.775" style="fill:rgb(209,42,124);"/>
        </g>
        <path d="M99.279,49.611L107.117,66.92L41.464,66.92L49.302,49.611L99.279,49.611Z" style="fill:rgb(254,100,176);"/>
        <g transform="matrix(1,0,0,1,-0.85095,26.0054)">
            <path d="M30.885,66.92L41.266,43.994L108.853,43.994L119.235,66.92L30.885,66.92Z" style="fill:rgb(236,72,153);"/>
        </g>
    </g>
    <g transform="matrix(0.885008,0,0,0.885008,-1.76243,-22.1854)">
        <path d="M239.389,53.359C236.391,63.455 231.741,72.24 225.501,79.713L227.642,87.056C229.478,85.023 231.191,82.925 232.843,80.762L232.843,114.852L239.205,114.852L239.205,70.928C241.714,66.339 243.732,61.488 245.323,56.375L239.389,53.359ZM341.986,60.111L328.465,60.111C327.854,57.751 327.242,55.654 326.569,53.687L320.329,54.736C321.063,56.375 321.736,58.145 322.347,60.111L309.561,60.111L309.561,73.092L312.865,73.092L312.865,114.655L318.86,114.655L318.86,111.836L334.216,111.836L334.216,114.721L340.151,114.721L340.151,93.218L318.86,93.218L318.86,88.629L338.56,88.629L338.56,73.092L341.986,73.092L341.986,60.111ZM190.935,66.208L190.935,72.83L201.03,72.83C197.42,83.122 192.587,91.317 186.53,97.479L190.201,104.035C194.483,98.397 198.215,91.251 201.397,82.598L201.397,114.524L207.82,114.524L207.82,82.532C210.757,90.923 214.061,97.873 217.793,103.511L222.014,97.348C216.08,90.661 211.491,82.532 208.249,72.83L219.995,72.83L219.995,66.208L207.82,66.208L207.82,54.08L201.397,54.08L201.397,66.208L190.935,66.208ZM166.341,66.208L166.341,72.83L174.784,72.83C172.642,80.172 169.278,86.728 164.75,92.497L167.503,100.102C170.562,95.119 173.132,89.678 175.151,83.647L175.151,114.524L181.575,114.524L181.575,82.401C183.165,84.761 185.123,87.842 187.387,91.645L191.18,85.613C187.937,81.877 184.756,78.533 181.575,75.517L181.575,72.83L189.222,72.83L189.222,66.208L181.575,66.208L181.575,54.08L175.151,54.08L175.151,66.208L166.341,66.208ZM260.128,54.342L260.128,104.166L252.114,104.166L252.114,66.274L245.751,66.274L245.751,114.459L252.114,114.459L252.114,110.787L274.077,110.787L274.077,114.459L280.562,114.459L280.562,66.208L274.077,66.208L274.077,104.166L266.552,104.166L266.552,54.342L260.128,54.342ZM294.817,78.402L294.817,104.494C294.817,106.067 294.266,107.182 293.226,107.968L295.735,113.672C300.568,111.64 304.85,109.017 308.582,105.871L307.359,99.512C305.278,101.74 303.137,103.511 300.935,104.953L300.935,78.402L294.817,78.402ZM125.779,54.08L125.779,105.805L104.55,105.805L104.55,112.492L159.55,112.492L159.55,105.805L132.387,105.805L132.387,80.172L155.023,80.172L155.023,73.551L132.387,73.551L132.387,54.08L125.779,54.08ZM318.86,99.118L334.216,99.118L334.216,105.936L318.86,105.936L318.86,99.118ZM296.713,70.797L301.547,70.797C300.751,72.764 299.895,74.403 298.916,75.845L303.443,79.713C305.156,77.091 306.747,73.747 308.154,69.814L308.154,64.504L298.365,64.504C298.977,61.75 299.466,58.735 299.956,55.588L293.716,54.474C292.492,64.438 290.106,72.436 286.558,78.402L290.718,83.843C293.104,80.303 295.123,75.911 296.713,70.797ZM318.86,82.925L318.86,76.304L332.564,76.304L332.564,82.925L318.86,82.925ZM315.557,70.535L315.557,66.274L335.99,66.274L335.99,70.535L315.557,70.535Z" style="fill:rgb(97,97,97);fill-rule:nonzero;"/>
    </g>
</svg>
